<!-- icons.svg -->
<svg xmlns="http://www.w3.org/2000/svg" style="display: none;">
    <!-- navbar -->
    <!-- clip -->
    <symbol id="icon-clip" width="24" height="24" viewBox="0 0 24 24" fill="none" stroke="currentColor" stroke-width="2" stroke-linecap="round" stroke-linejoin="round" class="lucide lucide-paperclip-icon lucide-paperclip">
        <path d="m16 6-8.414 8.586a2 2 0 0 0 2.829 2.829l8.414-8.586a4 4 0 1 0-5.657-5.657l-8.379 8.551a6 6 0 1 0 8.485 8.485l8.379-8.551"/>
    </symbol>
    <!-- home-->
    <symbol id="icon-home" width="24" height="24" viewBox="0 0 24 24" fill="none" stroke="currentColor" stroke-width="2" stroke-linecap="round" stroke-linejoin="round" class="lucide lucide-house-icon lucide-house">
        <path d="M15 21v-8a1 1 0 0 0-1-1h-4a1 1 0 0 0-1 1v8"/><path d="M3 10a2 2 0 0 1 .709-1.528l7-6a2 2 0 0 1 2.582 0l7 6A2 2 0 0 1 21 10v9a2 2 0 0 1-2 2H5a2 2 0 0 1-2-2z"/>
    </symbol>
    <!-- task -->
    <symbol id="icon-task" width="24" height="24" viewBox="0 0 24 24" fill="none" stroke="currentColor" stroke-width="2" stroke-linecap="round" stroke-linejoin="round" class="lucide lucide-check-icon lucide-check">
        <path d="M20 6 9 17l-5-5"/>
    </symbol>
    <!-- search -->
    <symbol id="icon-search" width="24" height="24" viewBox="0 0 24 24" fill="none" stroke="currentColor" stroke-width="2" stroke-linecap="round" stroke-linejoin="round" class="lucide lucide-search-icon lucide-search">
        <path d="m21 21-4.34-4.34"/><circle cx="11" cy="11" r="8"/>
    </symbol>
    <!-- settings -->
    <symbol id="icon-settings" width="24" height="24" viewBox="0 0 24 24" fill="none" stroke="currentColor" stroke-width="2" stroke-linecap="round" stroke-linejoin="round" class="lucide lucide-settings-icon lucide-settings">
        <path d="M9.671 4.136a2.34 2.34 0 0 1 4.659 0 2.34 2.34 0 0 0 3.319 1.915 2.34 2.34 0 0 1 2.33 4.033 2.34 2.34 0 0 0 0 3.831 2.34 2.34 0 0 1-2.33 4.033 2.34 2.34 0 0 0-3.319 1.915 2.34 2.34 0 0 1-4.659 0 2.34 2.34 0 0 0-3.32-1.915 2.34 2.34 0 0 1-2.33-4.033 2.34 2.34 0 0 0 0-3.831A2.34 2.34 0 0 1 6.35 6.051a2.34 2.34 0 0 0 3.319-1.915"/><circle cx="12" cy="12" r="3"/>
    </symbol>
    <!-- user profile -->
    <symbol id="icon-user" width="24" height="24" viewBox="0 0 24 24" fill="none" stroke="currentColor" stroke-width="2" stroke-linecap="round" stroke-linejoin="round" class="lucide lucide-user-round-icon lucide-user-round"><circle cx="12" cy="8" r="5"/>
        <path d="M20 21a8 8 0 0 0-16 0"/>
    </symbol>

    <!-- modal -->
    <!-- close -->
    <symbol id="icon-close" width="24" height="24" viewBox="0 0 24 24" fill="none" stroke="currentColor" stroke-width="2" stroke-linecap="round" stroke-linejoin="round" class="lucide lucide-x-icon lucide-x">
        <path d="M18 6 6 18"/><path d="m6 6 12 12"/>
    </symbol>
    <!-- note -->
    <symbol id="icon-note" width="24" height="24" viewBox="0 0 24 24">
        <g fill="none" stroke="currentColor" stroke-linecap="round" stroke-linejoin="round" stroke-width="1.5">
            <path d="M16.5 4H8a4 4 0 0 0-4 4v8.5a4 4 0 0 0 4 4h6.843a4 4 0 0 0 2.829-1.172l1.656-1.656a4 4 0 0 0 1.172-2.829V8a4 4 0 0 0-4-4"/><path d="M20.5 14H17a3 3 0 0 0-3 3v3.5M8 8h7.5M8 12h5"/>
        </g>
    </symbol>
    <!-- delete -->
    <symbol id="icon-delete" width="24" height="24" viewBox="0 0 24 24" fill="none" stroke="currentColor" stroke-width="2" stroke-linecap="round" stroke-linejoin="round" class="lucide lucide-trash2-icon lucide-trash-2">
        <path d="M10 11v6"/><path d="M14 11v6"/><path d="M19 6v14a2 2 0 0 1-2 2H7a2 2 0 0 1-2-2V6"/><path d="M3 6h18"/><path d="M8 6V4a2 2 0 0 1 2-2h4a2 2 0 0 1 2 2v2"/>
    </symbol>
    
    <!-- sidebars -->
    <!-- insert -->
    <symbol id="icon-insert" width="24" height="24" viewBox="0 0 24 24" fill="none" stroke="currentColor" stroke-width="2" stroke-linecap="round" stroke-linejoin="round" class="lucide lucide-file-plus-corner-icon lucide-file-plus-corner">
        <path d="M11.35 22H6a2 2 0 0 1-2-2V4a2 2 0 0 1 2-2h8a2.4 2.4 0 0 1 1.706.706l3.588 3.588A2.4 2.4 0 0 1 20 8v5.35"/><path d="M14 2v5a1 1 0 0 0 1 1h5"/><path d="M14 19h6"/><path d="M17 16v6"/>
    </symbol>
    <!-- h1 -->
    <symbol id="icon-h1" width="24" height="24" viewBox="0 0 24 24" fill="none" stroke="currentColor" stroke-width="2" stroke-linecap="round" stroke-linejoin="round" class="lucide lucide-heading1-icon lucide-heading-1">
        <path d="M4 12h8"/><path d="M4 18V6"/><path d="M12 18V6"/><path d="m17 12 3-2v8"/>
    </symbol>
    <!-- h2 -->
    <symbol id="icon-h2" width="24" height="24" viewBox="0 0 24 24" fill="none" stroke="currentColor" stroke-width="2" stroke-linecap="round" stroke-linejoin="round" class="lucide lucide-heading2-icon lucide-heading-2">
        <path d="M4 12h8"/><path d="M4 18V6"/><path d="M12 18V6"/><path d="M21 18h-4c0-4 4-3 4-6 0-1.5-2-2.5-4-1"/>
    </symbol>
    <!-- h3 -->
    <symbol id="icon-h3" width="24" height="24" viewBox="0 0 24 24" fill="none" stroke="currentColor" stroke-width="2" stroke-linecap="round" stroke-linejoin="round" class="lucide lucide-heading3-icon lucide-heading-3">
        <path d="M4 12h8"/><path d="M4 18V6"/><path d="M12 18V6"/><path d="M17.5 10.5c1.7-1 3.5 0 3.5 1.5a2 2 0 0 1-2 2"/><path d="M17 17.5c2 1.5 4 .3 4-1.5a2 2 0 0 0-2-2"/>
    </symbol>
    <!-- format -->
    <symbol id="icon-format" width="24" height="24" viewBox="0 0 24 24" fill="none" stroke="currentColor" stroke-width="2" stroke-linecap="round" stroke-linejoin="round" class="lucide lucide-baseline-icon lucide-baseline">
        <path d="M4 20h16"/><path d="m6 16 6-12 6 12"/><path d="M8 12h8"/>
    </symbol>
    <!-- save -->
    <symbol id="icon-save" width="24" height="24" viewBox="0 0 24 24" fill="none" stroke="currentColor" stroke-width="2" stroke-linecap="round" stroke-linejoin="round" class="lucide lucide-save-icon lucide-save">
        <path d="M15.2 3a2 2 0 0 1 1.4.6l3.8 3.8a2 2 0 0 1 .6 1.4V19a2 2 0 0 1-2 2H5a2 2 0 0 1-2-2V5a2 2 0 0 1 2-2z"/><path d="M17 21v-7a1 1 0 0 0-1-1H8a1 1 0 0 0-1 1v7"/><path d="M7 3v4a1 1 0 0 0 1 1h7"/>
    </symbol>
    <!-- image -->
    <symbol id="icon-image" width="24" height="24" viewBox="0 0 24 24" fill="none" stroke="currentColor" stroke-width="2" stroke-linecap="round" stroke-linejoin="round" class="lucide lucide-image-plus-icon lucide-image-plus">
        <path d="M16 5h6"/><path d="M19 2v6"/><path d="M21 11.5V19a2 2 0 0 1-2 2H5a2 2 0 0 1-2-2V5a2 2 0 0 1 2-2h7.5"/><path d="m21 15-3.086-3.086a2 2 0 0 0-2.828 0L6 21"/><circle cx="9" cy="9" r="2"/>
    </symbol>
    <!-- video -->
    <symbol id="icon-video" width="24" height="24" viewBox="0 0 24 24" fill="none" stroke="currentColor" stroke-width="2" stroke-linecap="round" stroke-linejoin="round" class="lucide lucide-video-icon lucide-video">
        <path d="m16 13 5.223 3.482a.5.5 0 0 0 .777-.416V7.87a.5.5 0 0 0-.752-.432L16 10.5"/><rect x="2" y="6" width="14" height="12" rx="2"/>
    </symbol>
    <!-- audio -->
    <symbol id="icon-audio" width="24" height="24" viewBox="0 0 24 24" fill="none" stroke="currentColor" stroke-width="2" stroke-linecap="round" stroke-linejoin="round" class="lucide lucide-audio-lines-icon lucide-audio-lines">
        <path d="M2 10v3"/><path d="M6 6v11"/><path d="M10 3v18"/><path d="M14 8v7"/><path d="M18 5v13"/><path d="M22 10v3"/>
    </symbol>
</svg>
